<svg width="170" height="21" viewBox="0 0 170 21" fill="none" xmlns="http://www.w3.org/2000/svg">
<g clip-path="url(#clip0_1_27)">
<path d="M11.0711 20.9142C9.56439 20.9142 8.16927 20.6571 6.88576 20.1429C5.60224 19.6095 4.47684 18.8762 3.50956 17.9428C2.56087 16.9905 1.81681 15.8762 1.27736 14.6C0.756509 13.3238 0.496086 11.9429 0.496086 10.4571C0.496086 8.95238 0.756509 7.57143 1.27736 6.31429C1.81681 5.0381 2.56087 3.93333 3.50956 3C4.47684 2.06666 5.59294 1.33333 6.85785 0.799999C8.14136 0.266666 9.52719 0 11.0153 0C12.5778 0 13.9823 0.257143 15.2286 0.771428C16.4749 1.26667 17.5724 1.9619 18.5211 2.85714L15.1728 6.28572C14.7077 5.75238 14.1311 5.33333 13.4429 5.02857C12.7546 4.7238 11.9454 4.57143 11.0153 4.57143C10.2155 4.57143 9.48068 4.70476 8.81102 4.97143C8.15997 5.23809 7.59262 5.6381 7.10897 6.17143C6.62533 6.68571 6.24399 7.30476 5.96497 8.02857C5.70455 8.75238 5.57433 9.56194 5.57433 10.4571C5.57433 11.3524 5.70455 12.1619 5.96497 12.8858C6.24399 13.6095 6.62533 14.2381 7.10897 14.7715C7.59262 15.2857 8.15997 15.6857 8.81102 15.9714C9.48068 16.2381 10.2155 16.3715 11.0153 16.3715C11.9454 16.3715 12.7639 16.2286 13.4707 15.9429C14.1776 15.6381 14.7822 15.2095 15.2844 14.6571L18.6327 18.0857C17.6654 18.9809 16.5679 19.6762 15.3402 20.1714C14.1311 20.6666 12.7081 20.9142 11.0711 20.9142Z" fill="black"/>
<path d="M20.6327 20.2572L28.3059 0H33.1331L40.7225 20.2572H35.5047L29.7847 3.22857H31.5984L25.7389 20.2572H20.6327Z" fill="black"/>
<path d="M42.7225 20.2572V0H47.717V20.2572H42.7225ZM46.6846 20.2572V15.8572H56.2273V20.2572H46.6846Z" fill="black"/>
<path d="M58.2273 20.2572V0H63.2218V20.2572H58.2273Z" fill="black"/>
<path d="M65.2218 20.2572V0H70.2163V20.2572H65.2218ZM69.1839 12.6857V8.37143H78.9777V12.6857H69.1839ZM69.1839 4.31428V0H79.4241V4.31428H69.1839Z" fill="black"/>
<path d="M92.055 21C90.5297 21 89.1252 20.7333 87.8417 20.2C86.5582 19.6667 85.4327 18.9238 84.4655 17.9714C83.5168 17.0191 82.7728 15.9047 82.2333 14.6286C81.6939 13.3334 81.4241 11.9429 81.4241 10.4571C81.4241 8.97143 81.6846 7.6 82.2054 6.34286C82.7449 5.06667 83.4889 3.95238 84.4376 3C85.3863 2.04761 86.5024 1.31428 87.7859 0.800002C89.0694 0.266667 90.4739 0 91.9992 0C93.5246 0 94.929 0.266667 96.2126 0.800002C97.4956 1.31428 98.6124 2.04761 99.561 3C100.51 3.95238 101.244 5.06667 101.765 6.34286C102.304 7.61905 102.574 9 102.574 10.4857C102.574 11.9714 102.304 13.3524 101.765 14.6286C101.244 15.9047 100.51 17.0286 99.561 18C98.6124 18.9524 97.4956 19.6952 96.2126 20.2285C94.9476 20.7428 93.5618 21 92.055 21ZM91.9992 16.4286C93.1153 16.4286 94.0826 16.181 94.9011 15.6858C95.7195 15.1904 96.3516 14.4952 96.7987 13.6C97.2448 12.7048 97.4684 11.6571 97.4684 10.4571C97.4684 9.58096 97.3378 8.78095 97.0777 8.05715C96.8353 7.33333 96.4728 6.71428 95.9891 6.2C95.5054 5.66667 94.9289 5.25714 94.2593 4.97143C93.5897 4.68571 92.8363 4.54286 91.9992 4.54286C90.8831 4.54286 89.9158 4.79048 89.0973 5.28572C88.2789 5.7619 87.6464 6.44762 87.2 7.34286C86.7535 8.2381 86.5303 9.2762 86.5303 10.4571C86.5303 11.3714 86.6512 12.2 86.8931 12.9429C87.1534 13.6667 87.5254 14.2953 88.0091 14.8286C88.4928 15.3429 89.0694 15.7428 89.7391 16.0285C90.4088 16.2952 91.1621 16.4286 91.9992 16.4286Z" fill="black"/>
<path d="M108.536 12.0571V8.4H112.303C113.121 8.4 113.745 8.2 114.172 7.8C114.619 7.38095 114.842 6.81905 114.842 6.11429C114.842 5.42857 114.619 4.87619 114.172 4.45714C113.745 4.01905 113.121 3.8 112.303 3.8H108.536V0H113.001C114.34 0 115.511 0.257143 116.516 0.771429C117.539 1.28572 118.339 1.99048 118.916 2.88572C119.493 3.78095 119.781 4.82857 119.781 6.02857C119.781 7.22857 119.483 8.28572 118.888 9.19999C118.311 10.0953 117.502 10.8 116.46 11.3143C115.418 11.8095 114.2 12.0571 112.805 12.0571H108.536ZM104.574 20.2572V0H109.569V20.2572H104.574ZM115.289 20.2572L109.541 11.5715L114.033 10.4571L121.064 20.2572H115.289Z" fill="black"/>
<path d="M123.064 20.2572V0H126.551L128.058 4.14286V20.2572H123.064ZM136.708 20.2572L125.157 5.22857L126.551 0L138.131 15.0285L136.708 20.2572ZM136.708 20.2572L135.424 16V0H140.419V20.2572H136.708Z" fill="black"/>
<path d="M142.419 20.2572V0H147.414V20.2572H142.419Z" fill="black"/>
<path d="M149.414 20.2572L157.087 0H161.914L169.504 20.2572H164.287L158.566 3.22857H160.38L154.52 20.2572H149.414Z" fill="black"/>
</g>
<defs>
<clipPath id="clip0_1_27">
<rect width="169.008" height="21" fill="white" transform="translate(0.496086)"/>
</clipPath>
</defs>
</svg>
